<svg width="42" height="48" viewBox="0 0 42 48" fill="none" xmlns="http://www.w3.org/2000/svg">
<path d="M35 5.33333H32.6667V3C32.6667 2.38116 32.4208 1.78767 31.9832 1.35009C31.5457 0.9125 30.9522 0.666668 30.3333 0.666668C29.7145 0.666668 29.121 0.9125 28.6834 1.35009C28.2458 1.78767 28 2.38116 28 3V5.33333H14V3C14 2.38116 13.7542 1.78767 13.3166 1.35009C12.879 0.9125 12.2855 0.666668 11.6667 0.666668C11.0478 0.666668 10.4543 0.9125 10.0168 1.35009C9.57917 1.78767 9.33333 2.38116 9.33333 3V5.33333H7C5.14348 5.33333 3.36301 6.07083 2.05025 7.38359C0.737498 8.69634 0 10.4768 0 12.3333V40.3333C0 42.1899 0.737498 43.9703 2.05025 45.2831C3.36301 46.5958 5.14348 47.3333 7 47.3333H35C36.8565 47.3333 38.637 46.5958 39.9497 45.2831C41.2625 43.9703 42 42.1899 42 40.3333V12.3333C42 10.4768 41.2625 8.69634 39.9497 7.38359C38.637 6.07083 36.8565 5.33333 35 5.33333ZM11.6667 35.6667C11.2052 35.6667 10.7541 35.5298 10.3703 35.2734C9.98662 35.017 9.68755 34.6526 9.51095 34.2263C9.33434 33.7999 9.28813 33.3307 9.37817 32.8781C9.4682 32.4255 9.69043 32.0097 10.0168 31.6834C10.3431 31.3571 10.7588 31.1349 11.2115 31.0448C11.6641 30.9548 12.1332 31.001 12.5596 31.1776C12.986 31.3542 13.3504 31.6533 13.6068 32.037C13.8632 32.4207 14 32.8718 14 33.3333C14 33.9522 13.7542 34.5457 13.3166 34.9833C12.879 35.4208 12.2855 35.6667 11.6667 35.6667ZM30.3333 35.6667H21C20.3812 35.6667 19.7877 35.4208 19.3501 34.9833C18.9125 34.5457 18.6667 33.9522 18.6667 33.3333C18.6667 32.7145 18.9125 32.121 19.3501 31.6834C19.7877 31.2458 20.3812 31 21 31H30.3333C30.9522 31 31.5457 31.2458 31.9832 31.6834C32.4208 32.121 32.6667 32.7145 32.6667 33.3333C32.6667 33.9522 32.4208 34.5457 31.9832 34.9833C31.5457 35.4208 30.9522 35.6667 30.3333 35.6667ZM37.3333 21.6667H4.66667V12.3333C4.66667 11.7145 4.9125 11.121 5.35008 10.6834C5.78767 10.2458 6.38116 10 7 10H9.33333V12.3333C9.33333 12.9522 9.57917 13.5457 10.0168 13.9833C10.4543 14.4208 11.0478 14.6667 11.6667 14.6667C12.2855 14.6667 12.879 14.4208 13.3166 13.9833C13.7542 13.5457 14 12.9522 14 12.3333V10H28V12.3333C28 12.9522 28.2458 13.5457 28.6834 13.9833C29.121 14.4208 29.7145 14.6667 30.3333 14.6667C30.9522 14.6667 31.5457 14.4208 31.9832 13.9833C32.4208 13.5457 32.6667 12.9522 32.6667 12.3333V10H35C35.6188 10 36.2123 10.2458 36.6499 10.6834C37.0875 11.121 37.3333 11.7145 37.3333 12.3333V21.6667Z" fill="#333333" fill-opacity="0.38"/>
</svg>
