<svg width="72" height="72" viewBox="0 0 72 72" fill="none" xmlns="http://www.w3.org/2000/svg">
<path d="M12.375 32.375H32.625V12.125H12.375V32.375ZM16.5938 16.3438H28.4062V28.1562H16.5938V16.3438ZM39.375 12.125V32.375H59.625V12.125H39.375ZM55.4062 28.1562H43.5938V16.3438H55.4062V28.1562ZM12.375 59.375H32.625V39.125H12.375V59.375ZM16.5938 43.3438H28.4062V55.1562H16.5938V43.3438ZM19.9688 46.7188V51.7812H25.0312V46.7188H19.9688ZM19.9688 19.7188V24.7812H25.0312V19.7188H19.9688ZM52.0312 24.7812V19.7188H46.9688V24.7812H52.0312ZM56.25 39.125V42.5H49.5V39.125H39.375V59.375H42.75V49.25H46.125V52.625H59.625V39.125H56.25ZM56.25 56V59.375H59.625V56H56.25ZM49.5 56V59.375H52.875V56H49.5Z" fill="#4BAC4D"/>
<path d="M2 7.62615V17H5V8.44C5 7.01231 5.40541 6 6.64565 6H15V3H6.85586C4 3 2 4.5 2 7.62615Z" fill="#4BAC4D"/>
<path d="M70 64.3738L70 55L67 55L67 63.56C67 64.9877 66.5946 66 65.3544 66L57 66L57 69L65.1441 69C68 69 70 67.5 70 64.3738Z" fill="#4BAC4D"/>
<path d="M65.3738 3L56 3L56 6L64.56 6C65.9877 6 67 6.40541 67 7.64565L67 16L70 16L70 7.85586C70 5 68.5 3 65.3738 3Z" fill="#4BAC4D"/>
<path d="M6.62615 68.5L16 68.5L16 65.5L7.44 65.5C6.01231 65.5 5 65.0946 5 63.8544L5 55.5L2 55.5L2 63.6441C2 66.5 3.5 68.5 6.62615 68.5Z" fill="#4BAC4D"/>
</svg>
