<svg width="159" height="123" viewBox="0 0 159 123" fill="none" xmlns="http://www.w3.org/2000/svg">
<g opacity="0.5">
<path d="M47.1719 66.1719H74.4531V38.8906H47.1719V66.1719ZM52.8555 44.5742H68.7695V60.4883H52.8555V44.5742ZM83.5469 38.8906V66.1719H110.828V38.8906H83.5469ZM105.145 60.4883H89.2305V44.5742H105.145V60.4883ZM47.1719 102.547H74.4531V75.2656H47.1719V102.547ZM52.8555 80.9492H68.7695V96.8633H52.8555V80.9492ZM57.4023 85.4961V92.3164H64.2227V85.4961H57.4023ZM57.4023 49.1211V55.9414H64.2227V49.1211H57.4023ZM100.598 55.9414V49.1211H93.7773V55.9414H100.598ZM106.281 75.2656V79.8125H97.1875V75.2656H83.5469V102.547H88.0937V88.9063H92.6406V93.4531H110.828V75.2656H106.281ZM106.281 98V102.547H110.828V98H106.281ZM97.1875 98V102.547H101.734V98H97.1875Z" fill="#999999"/>
<path d="M31.7773 31.5917V44.6109H35.944V32.7221C35.944 30.7392 36.5071 29.3332 38.2296 29.3332H49.8329V25.1665H38.5216C34.5551 25.1665 31.7773 27.2498 31.7773 31.5917Z" fill="#999999"/>
<path d="M126.223 110.408L126.223 97.3891L122.056 97.3891L122.056 109.278C122.056 111.261 121.493 112.667 119.77 112.667L108.167 112.667L108.167 116.833L119.478 116.833C123.445 116.833 126.223 114.75 126.223 110.408Z" fill="#999999"/>
<path d="M119.797 25.1665L106.778 25.1665L106.778 29.3332L118.667 29.3332C120.65 29.3332 122.056 29.8962 122.056 31.6188L122.056 43.2221L126.223 43.2221L126.223 31.9107C126.223 27.9443 124.139 25.1665 119.797 25.1665Z" fill="#999999"/>
<path d="M38.2026 116.139L51.2218 116.139L51.2218 111.972L39.3329 111.972C37.35 111.972 35.944 111.409 35.944 109.687L35.944 98.0834L31.7773 98.0834L31.7773 109.395C31.7773 113.361 33.8607 116.139 38.2026 116.139Z" fill="#999999"/>
</g>
<rect x="80" y="74" width="34" height="29" fill="white"/>
<g filter="url(#filter0_d)">
<circle cx="97" cy="89" r="14" fill="url(#paint0_linear)"/>
</g>
<g filter="url(#filter1_d)">
<circle cx="20" cy="74" r="5" fill="url(#paint1_linear)"/>
</g>
<g filter="url(#filter2_d)">
<circle cx="136.5" cy="17.5" r="7.5" fill="url(#paint2_linear)"/>
</g>
<path d="M95.5716 93.4164C95.2672 93.4164 95.0642 93.6448 95.0642 93.9239V95.1164C95.0642 95.4209 95.2672 95.6239 95.5716 95.6239H99.4284C99.7075 95.6239 99.9358 95.4209 99.9358 95.1164V93.9239C99.9358 93.6448 99.7075 93.4164 99.4284 93.4164H98.9209V88.0119C98.9209 87.7328 98.6925 87.5045 98.4134 87.5045H95.5716C95.2672 87.5045 95.0642 87.7328 95.0642 88.0119V89.2298C95.0642 89.5089 95.2672 89.7373 95.5716 89.7373H96.0791V93.4164H95.5716ZM97.5 82.6328C96.4851 82.6328 95.6731 83.4701 95.6731 84.4597C95.6731 85.4746 96.4851 86.2866 97.5 86.2866C98.4896 86.2866 99.3269 85.4746 99.3269 84.4597C99.3269 83.4701 98.4896 82.6328 97.5 82.6328Z" fill="white"/>
<defs>
<filter id="filter0_d" x="68" y="65" width="58" height="58" filterUnits="userSpaceOnUse" color-interpolation-filters="sRGB">
<feFlood flood-opacity="0" result="BackgroundImageFix"/>
<feColorMatrix in="SourceAlpha" type="matrix" values="0 0 0 0 0 0 0 0 0 0 0 0 0 0 0 0 0 0 127 0" result="hardAlpha"/>
<feOffset dy="5"/>
<feGaussianBlur stdDeviation="7.5"/>
<feColorMatrix type="matrix" values="0 0 0 0 0 0 0 0 0 0 0 0 0 0 0 0 0 0 0.1 0"/>
<feBlend mode="normal" in2="BackgroundImageFix" result="effect1_dropShadow"/>
<feBlend mode="normal" in="SourceGraphic" in2="effect1_dropShadow" result="shape"/>
</filter>
<filter id="filter1_d" x="0" y="59" width="40" height="40" filterUnits="userSpaceOnUse" color-interpolation-filters="sRGB">
<feFlood flood-opacity="0" result="BackgroundImageFix"/>
<feColorMatrix in="SourceAlpha" type="matrix" values="0 0 0 0 0 0 0 0 0 0 0 0 0 0 0 0 0 0 127 0" result="hardAlpha"/>
<feOffset dy="5"/>
<feGaussianBlur stdDeviation="7.5"/>
<feColorMatrix type="matrix" values="0 0 0 0 0 0 0 0 0 0 0 0 0 0 0 0 0 0 0.1 0"/>
<feBlend mode="normal" in2="BackgroundImageFix" result="effect1_dropShadow"/>
<feBlend mode="normal" in="SourceGraphic" in2="effect1_dropShadow" result="shape"/>
</filter>
<filter id="filter2_d" x="114" y="0" width="45" height="45" filterUnits="userSpaceOnUse" color-interpolation-filters="sRGB">
<feFlood flood-opacity="0" result="BackgroundImageFix"/>
<feColorMatrix in="SourceAlpha" type="matrix" values="0 0 0 0 0 0 0 0 0 0 0 0 0 0 0 0 0 0 127 0" result="hardAlpha"/>
<feOffset dy="5"/>
<feGaussianBlur stdDeviation="7.5"/>
<feColorMatrix type="matrix" values="0 0 0 0 0 0 0 0 0 0 0 0 0 0 0 0 0 0 0.1 0"/>
<feBlend mode="normal" in2="BackgroundImageFix" result="effect1_dropShadow"/>
<feBlend mode="normal" in="SourceGraphic" in2="effect1_dropShadow" result="shape"/>
</filter>
<linearGradient id="paint0_linear" x1="55" y1="49" x2="114" y2="103" gradientUnits="userSpaceOnUse">
<stop stop-color="#ED1818"/>
<stop offset="1" stop-color="#FFA6A6"/>
</linearGradient>
<linearGradient id="paint1_linear" x1="5" y1="59.7143" x2="26.0714" y2="79" gradientUnits="userSpaceOnUse">
<stop stop-color="#ED1818"/>
<stop offset="1" stop-color="#FFA6A6"/>
</linearGradient>
<linearGradient id="paint2_linear" x1="114" y1="-3.92857" x2="145.607" y2="25" gradientUnits="userSpaceOnUse">
<stop stop-color="#ED1818"/>
<stop offset="1" stop-color="#FFA6A6"/>
</linearGradient>
</defs>
</svg>
